<mxfile host="app.diagrams.net" modified="2021-03-11T05:23:49.347Z" agent="5.0 (Windows NT 10.0; Win64; x64) AppleWebKit/537.36 (KHTML, like Gecko) Chrome/88.0.4324.190 Safari/537.36" etag="CWsB29f2trqeGjogSffq" version="14.2.7" type="github">
  <diagram id="dsL4T0rv_4_gJAaODu9c" name="Page-1">
    <mxGraphModel dx="1264" dy="531" grid="1" gridSize="10" guides="1" tooltips="1" connect="1" arrows="1" fold="1" page="1" pageScale="1" pageWidth="850" pageHeight="1100" math="0" shadow="0">
      <root>
        <mxCell id="0" />
        <mxCell id="1" parent="0" />
        <mxCell id="rt91CAsKHvZH0vSGsnBw-1" value="Person" style="swimlane;" vertex="1" parent="1">
          <mxGeometry x="330" y="50" width="200" height="100" as="geometry" />
        </mxCell>
        <mxCell id="rt91CAsKHvZH0vSGsnBw-2" value="+string name&lt;br&gt;+int age&lt;br&gt;+float weight&lt;br&gt;swim()" style="text;html=1;align=center;verticalAlign=middle;resizable=0;points=[];autosize=1;" vertex="1" parent="rt91CAsKHvZH0vSGsnBw-1">
          <mxGeometry x="55" y="25" width="90" height="60" as="geometry" />
        </mxCell>
        <mxCell id="rt91CAsKHvZH0vSGsnBw-4" value="" style="endArrow=classic;html=1;entryX=0;entryY=1;entryDx=0;entryDy=0;" edge="1" parent="1" target="rt91CAsKHvZH0vSGsnBw-1">
          <mxGeometry width="50" height="50" relative="1" as="geometry">
            <mxPoint x="250" y="210" as="sourcePoint" />
            <mxPoint x="330" y="210" as="targetPoint" />
          </mxGeometry>
        </mxCell>
        <mxCell id="rt91CAsKHvZH0vSGsnBw-5" value="name" style="swimlane;" vertex="1" parent="1">
          <mxGeometry x="110" y="210" width="200" height="90" as="geometry" />
        </mxCell>
        <mxCell id="rt91CAsKHvZH0vSGsnBw-7" value="+getName&lt;br&gt;name()" style="text;html=1;align=center;verticalAlign=middle;resizable=0;points=[];autosize=1;" vertex="1" parent="1">
          <mxGeometry x="165" y="235" width="70" height="30" as="geometry" />
        </mxCell>
        <mxCell id="rt91CAsKHvZH0vSGsnBw-9" value="age" style="swimlane;" vertex="1" parent="1">
          <mxGeometry x="330" y="210" width="200" height="90" as="geometry" />
        </mxCell>
        <mxCell id="rt91CAsKHvZH0vSGsnBw-10" value="+getAge&lt;br&gt;age()" style="text;html=1;align=center;verticalAlign=middle;resizable=0;points=[];autosize=1;" vertex="1" parent="rt91CAsKHvZH0vSGsnBw-9">
          <mxGeometry x="65" y="25" width="60" height="30" as="geometry" />
        </mxCell>
        <mxCell id="rt91CAsKHvZH0vSGsnBw-11" value="weight" style="swimlane;startSize=23;" vertex="1" parent="1">
          <mxGeometry x="570" y="210" width="200" height="90" as="geometry" />
        </mxCell>
        <mxCell id="rt91CAsKHvZH0vSGsnBw-12" value="+getWeight&lt;br&gt;weight()" style="text;html=1;align=center;verticalAlign=middle;resizable=0;points=[];autosize=1;" vertex="1" parent="rt91CAsKHvZH0vSGsnBw-11">
          <mxGeometry x="55" y="25" width="80" height="30" as="geometry" />
        </mxCell>
        <mxCell id="rt91CAsKHvZH0vSGsnBw-13" value="" style="endArrow=classic;html=1;entryX=0.5;entryY=1;entryDx=0;entryDy=0;" edge="1" parent="1" target="rt91CAsKHvZH0vSGsnBw-1">
          <mxGeometry width="50" height="50" relative="1" as="geometry">
            <mxPoint x="425" y="210" as="sourcePoint" />
            <mxPoint x="475" y="160" as="targetPoint" />
          </mxGeometry>
        </mxCell>
        <mxCell id="rt91CAsKHvZH0vSGsnBw-14" value="" style="endArrow=classic;html=1;" edge="1" parent="1">
          <mxGeometry width="50" height="50" relative="1" as="geometry">
            <mxPoint x="640" y="210" as="sourcePoint" />
            <mxPoint x="530" y="140" as="targetPoint" />
          </mxGeometry>
        </mxCell>
      </root>
    </mxGraphModel>
  </diagram>
</mxfile>
